# xmcd
#
# Track frame offsets:
#  150
#  15847
#  40640
#  59012
#  77185
#  91555
#  109357
#  130172
#  145497
#  162877
#  185557
#  205675
#
# Disc length: 2975 seconds
#
# Revision: 0
# Processed by: cddbd v1.4PL0 Copyright (c) Steve Scherf et al.
# Submitted via: AltoMP3_Maker 3.0
#
DISCID=990b9d0c
DTITLE=Tamra Rosanes - With Strings
DYEAR=1900
DGENRE=
TTITLE0=Only Singing Love Songs
TTITLE1=Never Wanna Kiss You Goodbye
TTITLE2=No Cure For Love
TTITLE3=Golden Earrings
TTITLE4=Always On My Mind
TTITLE5=Seven Spanish Angels
TTITLE6=Run With The Wind
TTITLE7=End Of The World
TTITLE8=Angels With One Wing
TTITLE9=Summer Of My Dreams
TTITLE10=Red Red Rose
TTITLE11=Together Again
EXTD=
EXTT0=
EXTT1=
EXTT2=
EXTT3=
EXTT4=
EXTT5=
EXTT6=
EXTT7=
EXTT8=
EXTT9=
EXTT10=
EXTT11=
PLAYORDER=
